<svg xmlns="http://www.w3.org/2000/svg" version="1.1" x="0px" y="0px" viewBox="0 0 100 125" xml:space="preserve"
     style="width: initial; height: 40px; padding: 2px 10px 0px 0px; fill: rgb(148, 159, 161);">
    <path d="M82,24.2H64.9l-0.8-6.1c-0.1-2.1-1.9-3.8-4-3.8H39.9c-2.1,0-3.9,1.7-4,3.8l-0.8,6.1H18c-1.7,0-3,1.3-3,3s1.3,3,3,3h3.8  l7.6,51.7c0.1,2.1,1.9,3.7,4,3.7h33.1c2.1,0,3.8-1.6,4-3.7l7.6-51.7H82c1.7,0,3-1.3,3-3S83.7,24.2,82,24.2z M41.2,24.2l0.5-3.8h16.7  l0.5,3.8H41.2z">

    </path></svg>
