<svg width="58px" height="90px" viewBox="0 0 58 90" version="1.1" xmlns="http://www.w3.org/2000/svg"
     style="width: 25px; fill: rgb(255, 255, 255);">
    <g id="Page-1" stroke="none" stroke-width="1" fill-rule="evenodd">
        <g id="" fill-rule="nonzero">
            <path d="M57.911,1.29 C57.91,1.239 57.905,1.188 57.896,1.139 C57.895,1.131 57.895,1.123 57.894,1.116 C57.893,1.114 57.893,1.113 57.892,1.111 C57.879,1.051 57.862,0.994 57.839,0.938 C57.831,0.921 57.823,0.905 57.816,0.889 C57.798,0.852 57.779,0.816 57.757,0.782 C57.744,0.763 57.733,0.745 57.719,0.727 C57.697,0.697 57.672,0.668 57.647,0.64 C57.632,0.625 57.619,0.609 57.604,0.595 C57.57,0.563 57.533,0.533 57.495,0.506 C57.485,0.5 57.477,0.492 57.469,0.485 C57.424,0.456 57.377,0.43 57.328,0.407 C57.324,0.406 57.32,0.405 57.316,0.403 C57.297,0.395 57.278,0.39 57.257,0.382 C57.221,0.369 57.184,0.357 57.147,0.348 C57.126,0.343 57.103,0.34 57.082,0.336 C57.043,0.33 57.004,0.326 56.965,0.324 C56.944,0.323 56.925,0.322 56.904,0.322 C56.849,0.323 56.796,0.328 56.742,0.338 C56.737,0.339 56.732,0.338 56.727,0.339 C56.725,0.339 56.722,0.34 56.72,0.34 C56.72,0.34 56.719,0.34 56.718,0.34 C43.441,3.012 35.463,7.564 33.008,13.869 C31.089,18.8 33.181,23.219 34.157,24.876 L29.988,29.462 L29.988,20.574 C29.988,20.027 29.545,19.583 28.997,19.583 C28.45,19.583 28.006,20.027 28.006,20.574 L28.006,45.818 L23.837,41.233 C24.814,39.575 26.906,35.156 24.986,30.226 C22.53,23.921 14.553,19.369 1.276,16.697 C1.276,16.697 1.275,16.697 1.275,16.697 C1.273,16.697 1.271,16.696 1.268,16.696 C1.262,16.695 1.257,16.696 1.251,16.694 C1.198,16.685 1.145,16.68 1.092,16.678 C1.071,16.678 1.051,16.679 1.031,16.679 C0.991,16.681 0.952,16.685 0.912,16.691 C0.891,16.695 0.87,16.698 0.85,16.703 C0.81,16.712 0.77,16.725 0.731,16.74 C0.714,16.746 0.698,16.751 0.682,16.758 C0.678,16.76 0.673,16.761 0.668,16.763 C0.618,16.785 0.571,16.812 0.526,16.842 C0.522,16.845 0.518,16.848 0.514,16.851 C0.469,16.881 0.428,16.915 0.39,16.952 C0.376,16.965 0.365,16.979 0.351,16.993 C0.324,17.022 0.298,17.053 0.274,17.085 C0.261,17.102 0.25,17.12 0.238,17.138 C0.216,17.173 0.197,17.209 0.179,17.246 C0.171,17.262 0.162,17.278 0.156,17.295 C0.134,17.35 0.115,17.408 0.103,17.466 C0.103,17.468 0.102,17.47 0.102,17.472 C0.1,17.481 0.101,17.49 0.099,17.499 C0.091,17.547 0.086,17.596 0.085,17.645 C0.085,17.667 0.085,17.689 0.086,17.711 C0.086,17.73 0.086,17.749 0.087,17.769 C1.485,31.246 5.259,39.622 11.305,42.665 C16.028,45.042 20.625,43.382 22.371,42.566 L28.007,48.765 L28.007,61.018 L14.484,61.018 C12.518,61.018 10.918,62.618 10.918,64.583 C10.918,66.503 12.445,68.069 14.347,68.143 L17.835,88.86 C17.915,89.337 18.329,89.686 18.812,89.686 L39.184,89.686 C39.667,89.686 40.08,89.336 40.162,88.86 L43.649,68.143 C45.551,68.07 47.078,66.503 47.078,64.583 C47.078,62.617 45.478,61.018 43.513,61.018 L29.99,61.018 L29.99,40.45 L33.833,42.701 C33.656,43.213 33.56,43.762 33.56,44.334 C33.56,47.112 35.82,49.372 38.598,49.372 C41.375,49.372 43.635,47.112 43.635,44.334 C43.635,41.556 41.375,39.296 38.598,39.296 C37.102,39.296 35.757,39.952 34.833,40.99 L29.99,38.152 L29.99,32.406 L35.626,26.207 C37.371,27.023 41.969,28.683 46.691,26.306 C52.737,23.263 56.511,14.887 57.909,1.41 C57.912,1.39 57.91,1.37 57.911,1.35 C57.911,1.332 57.912,1.311 57.911,1.29 Z M23.133,30.926 C24.564,34.574 23.285,38.001 22.425,39.68 L17.563,34.332 L17.908,24.912 C20.501,26.689 22.261,28.703 23.133,30.926 Z M4.065,28.533 L11.303,30.391 L14.193,33.569 L5.68,33.071 C5.079,31.709 4.54,30.194 4.065,28.533 Z M9.476,20.9 L10.34,26.388 L3.902,19.306 C5.904,19.787 7.763,20.319 9.476,20.9 Z M2.434,20.637 L8.876,27.723 L3.492,26.341 C3.076,24.579 2.723,22.677 2.434,20.637 Z M12.767,29.056 L11.605,21.676 C13.213,22.307 14.67,22.987 15.97,23.714 L15.657,32.236 L12.767,29.056 Z M12.178,40.886 C10.047,39.807 8.208,37.865 6.686,35.116 L16.098,35.666 L20.959,41.013 C19.205,41.71 15.673,42.656 12.178,40.886 Z M38.347,87.706 L19.651,87.706 L16.359,68.151 L41.638,68.151 L38.347,87.706 Z M45.097,64.585 C45.097,65.459 44.386,66.17 43.512,66.17 L42.81,66.17 L15.188,66.17 L14.486,66.17 C13.612,66.17 12.902,65.459 12.902,64.585 C12.902,63.712 13.613,63.001 14.486,63.001 L43.513,63.001 C44.386,63.001 45.097,63.712 45.097,64.585 Z M38.597,41.28 C40.282,41.28 41.653,42.651 41.653,44.336 C41.653,46.022 40.282,47.393 38.597,47.393 C36.911,47.393 35.54,46.022 35.54,44.336 C35.54,42.651 36.911,41.28 38.597,41.28 Z M52.319,16.715 L43.805,17.213 L46.695,14.035 L53.933,12.177 C53.457,13.837 52.919,15.352 52.319,16.715 Z M54.505,9.984 L49.121,11.366 L55.562,4.28 C55.275,6.32 54.921,8.222 54.505,9.984 Z M42.34,15.879 L42.028,7.356 C43.327,6.629 44.784,5.95 46.392,5.319 L45.23,12.699 L42.34,15.879 Z M47.656,10.031 L48.52,4.543 C50.233,3.962 52.093,3.431 54.094,2.95 L47.656,10.031 Z M34.857,14.59 C35.725,12.358 37.489,10.337 40.089,8.554 L40.434,17.976 L35.57,23.327 C34.708,21.658 33.431,18.251 34.857,14.59 Z M45.82,24.529 C42.325,26.3 38.792,25.353 37.04,24.656 L41.9,19.309 L51.312,18.759 C49.789,21.508 47.95,23.45 45.82,24.529 Z"
                  id="Shape">
            </path>
        </g>
    </g>
</svg>
